<svg width="1493" height="1183" viewBox="0 0 1493 1183" fill="none" xmlns="http://www.w3.org/2000/svg">
<g clip-path="url(#clip0_197_260)">
<path fill-rule="evenodd" clip-rule="evenodd" d="M1380.82 910.016C1401.07 873.368 1436.16 863.306 1469.57 863.306C1483.72 863.306 1492.94 870.686 1492.94 884.817C1492.94 898.342 1483.72 905.713 1469.57 905.713C1406.26 905.713 1379.2 956.111 1379.2 1018.19V1157.09C1379.2 1170 1368.75 1178.61 1357.07 1178.61C1343.55 1178.61 1334.33 1170 1334.33 1157.09V946.608C1334.33 942.331 1337.9 940.997 1339.58 940.85C1360.09 939.073 1370.58 926.69 1380.82 910.016ZM626.199 881.376C626.199 853.101 580.095 853.101 580.095 881.376V909.033C580.095 937.31 626.199 936.69 626.199 909.033V881.376ZM580.714 1161.4L580.717 943.664C580.717 939.722 585.122 936.333 589.186 938.923C597.223 944.045 608.899 943.972 616.979 938.843C620.935 936.396 625.59 939.887 625.59 943.495V1161.4C625.59 1188.44 580.714 1187.82 580.714 1161.4ZM912.503 1159.55V996.673C912.503 940.131 867.018 900.799 817.217 900.799C757.588 900.799 701.655 949.969 701.655 1016.96V1159.55C701.655 1173.07 693.661 1181.06 679.518 1181.06C665.381 1181.06 656.161 1173.07 656.161 1159.55L656.158 952.064C656.158 947.974 659.567 946.431 661.592 946.322C678.069 945.261 692.802 936.081 703.457 917.206C726.524 876.349 771.973 859 817.838 859C889.146 859 957.386 908.172 957.386 996.673V1159.55C957.386 1173.07 949.394 1181.06 935.25 1181.06C921.723 1181.06 912.503 1173.07 912.503 1159.55ZM1112.57 906.331C1133.47 900.18 1158.68 900.18 1178.97 905.713C1226.3 918.008 1258.27 957.962 1262.57 1010.2H1030.81C1034.5 960.417 1063.39 919.236 1112.57 906.331ZM1191.25 865.76C1161.14 857.771 1127.94 857.159 1099.05 865.76C984.703 897.722 955.812 1039.08 1022.21 1126.37C1051.1 1162.62 1099.05 1181.06 1147 1181.06C1186.96 1181.68 1228.15 1170.61 1256.42 1144.19C1280.4 1119.61 1248.43 1094.4 1226.91 1114.07C1202.94 1132.51 1173.43 1139.88 1145.15 1139.88C1083.68 1139.88 1040.65 1098.09 1032.65 1047.69H1275.48C1300.68 1047.69 1306.83 1032.94 1305.6 1019.42C1304.37 941.36 1261.33 884.817 1191.88 865.76H1191.25ZM399.347 971.474L356.93 1013.27V879.247C356.93 854.049 312.056 854.049 312.056 879.247V1158.94C312.056 1187.82 356.93 1186.59 356.93 1158.94V1063.05L393.201 1030.48L518.607 1171.23C537.667 1195.81 574.548 1170.01 553.65 1144.8L427.01 1005.28L541.962 898.342C565.328 876.208 533.97 846.095 510.005 867.607L399.347 971.474ZM0.815779 1107.92C13.1115 1169.38 91.7944 1182.29 142.822 1182.29C193.841 1182.29 282.361 1163.24 282.361 1085.8C282.361 1008.97 210.441 1002.83 142.822 996.673C93.6423 992.989 48.1493 993.607 48.1493 954.264C48.1493 916.16 101.633 900.799 137.288 900.799C164.95 900.799 216.588 903.255 230.113 938.902C238.104 962.256 280.524 950.58 271.911 922.924C250.403 867.607 184.62 859.619 137.288 859.619C78.2763 859.619 3.27426 887.892 3.27426 953.656C3.27426 1029.26 74.5818 1034.79 140.976 1040.93C190.773 1044.61 237.485 1046.46 237.485 1085.8C237.485 1128.2 172.943 1141.73 142.822 1141.73C97.9483 1141.73 49.996 1127.59 43.853 1099.93C38.3174 1069.2 -6.55646 1082.11 0.815779 1107.92Z" fill="#1C8781"/>
<path fill-rule="evenodd" clip-rule="evenodd" d="M1053.03 343.838C1048.18 341.174 1037.86 335.665 1026.63 330.667C1018.46 327.032 1006.36 322.231 1001.79 320.952C999.84 320.408 997.56 320.319 994.8 321.851C976.65 331.917 961.99 343.016 950.596 352.347C906.262 388.631 883.125 429.216 875.464 443.605C874.799 444.895 876.392 445.679 877.088 444.579C885.734 430.011 911.17 393.514 944.927 365.955C964.97 349.586 981.32 339.905 998.75 330.478C1001.39 329.047 1003.47 329.119 1006 330.049C1009.26 331.247 1020.08 335.724 1030.94 339.056C1038.9 341.502 1047.86 343.73 1052.59 344.808C1053.17 344.937 1053.61 344.312 1053.03 343.838ZM1143.19 421.543C1130.95 416.876 1105.32 414.537 1087.4 420.321C1079.53 422.858 1046.74 428.214 1020.5 422.472C998.72 417.712 975.45 420.716 969.13 421.236C966 421.492 963.11 418.876 963.85 414.614C964.68 409.766 967.42 403.035 968.58 400.323C968.77 399.84 969.43 399.726 969.83 400.249C971.07 402.105 973.72 405.826 976.5 408.084C982.37 412.857 990.18 414.326 993.73 414.471C994.29 414.524 994.3 413.829 993.94 413.68C989.92 412.1 981.08 406.787 978.65 397.503C975.76 386.451 980.64 376.202 983 372.672C983.3 372.205 982.72 371.823 982.42 372.106C965.05 388.687 957.445 413.746 956.677 419.661C956.119 423.939 959.514 426.391 962.32 425.99C976.57 423.948 1002.47 423.607 1017.32 427.461C1046.63 435.07 1081.59 428.643 1088.08 426.557C1101.12 422.362 1125.92 423.805 1140.48 429.197C1144.89 430.828 1148.24 423.47 1143.19 421.543ZM1312.95 437.328C1301.1 452.12 1282.54 462.475 1262.17 460.594C1241.36 458.88 1233.14 479.008 1235.54 490.813C1240.67 512.651 1211.65 522.063 1201.27 504.435C1198.38 499.531 1195.46 492.508 1194.6 474.045C1193.74 455.802 1177.13 456.162 1169.5 461.618C1151.66 474.651 1152.71 493.422 1157.18 503.923C1163.33 516.99 1180.16 514.533 1182.25 502.063C1182.32 501.58 1181.66 501.396 1181.51 501.88C1177.69 512.208 1165.75 505.848 1163.95 498.207C1162.61 492.576 1159.99 483.313 1171.09 471.146C1177.8 463.796 1188.47 467.182 1187.9 476.84C1187.17 489.329 1187.74 501.221 1196.38 514.758C1212.06 539.335 1248.72 522.919 1244.44 496.802C1242.22 483.799 1250.94 470.517 1266.32 468.246C1287.93 465.278 1307.44 449.544 1314.21 438.388C1314.76 437.441 1313.54 436.646 1312.95 437.328ZM1220.55 463.675C1217.13 472.416 1201.37 473.548 1201.29 461.582C1201 414.635 1130.21 423.127 1141.15 466.122C1146.82 488.402 1111.57 498.175 1109.76 470.63C1109.3 463.643 1111.51 459.288 1113.67 456.746C1114.01 456.33 1113.52 455.906 1113.16 456.175C1109.51 459.014 1104.97 464.619 1105.81 474.653C1108.77 510.093 1160.25 500.06 1151.7 466.351C1145.8 440.839 1192.52 427.124 1196.85 462.899C1198.76 478.707 1218.72 479.784 1221.3 463.912C1221.37 463.261 1220.67 463.329 1220.55 463.675ZM1281.18 419.905C1278.92 423.976 1274.8 425.039 1272.59 424.895C1271.6 422.66 1270.45 421.33 1269.41 420.441C1269.1 434.042 1263.62 444.065 1260.34 449.229C1260.1 449.621 1260.42 450.016 1260.79 449.858C1277.08 442.954 1281.36 426.498 1281.57 420.006L1281.18 419.905ZM1085.77 377.18C1085.57 377.626 1084.31 380.617 1085.87 381.234C1090.1 382.34 1099.16 386.291 1108.31 391.836C1111.77 393.927 1131.64 407.175 1137.23 408.382C1149.91 411.111 1159.32 405.333 1166.66 403.869C1172.59 402.685 1188.72 403.869 1192.74 401.861C1196.75 399.856 1209.7 382.797 1211.71 380.455C1213.71 378.114 1217.06 370.427 1220.73 370.09C1224.41 369.757 1229.09 370.09 1231.43 373.1L1235.57 378.415C1235.97 378.98 1236.59 378.729 1236.76 378.584L1237.92 377.65C1238.35 377.328 1239.16 376.754 1240.46 376.628C1241.61 376.515 1243.97 376.933 1244.98 378.95C1245.74 380.466 1246.21 382.645 1246.4 383.625C1247.9 383.483 1250.2 382.496 1251.5 382.46C1256.37 382.33 1258.75 384.476 1259.55 385.397C1259.76 385.643 1259.81 385.986 1259.71 386.224L1258.69 389.03C1258.61 389.254 1258.54 389.679 1258.59 389.974C1258.75 390.893 1259.18 392.744 1260.2 392.491C1261.54 392.158 1266.86 388.815 1269.89 388.815C1274.41 388.815 1277.92 390.152 1278.25 391.823C1278.59 393.493 1277.25 397.044 1277.25 398.844C1277.25 401.185 1278.59 410.883 1279.59 412.554C1280.59 414.224 1282.6 417.904 1285.28 418.906C1287.95 419.908 1295.48 422.417 1298.32 425.259C1299.91 426.858 1301.8 430.725 1302.85 433.064C1303.13 433.655 1303.97 433.84 1304.36 433.105C1305.74 430.047 1309.46 424.142 1318.05 422.92C1321.42 422.436 1330.14 424.564 1334.1 432.278C1341.76 447.188 1335.63 499.115 1297.75 522.243C1258.12 546.449 1246.62 536.648 1232.67 539.932C1221.1 542.65 1202.27 556.938 1175.25 540.746C1162.14 532.896 1158.1 520.441 1148.09 516.033C1135.75 510.596 1119.32 513.559 1112.26 514.305C1097.25 515.898 1034.65 514.99 984.32 495.288C961.61 486.395 936.718 473.913 889.375 469.979C887.188 469.592 885.751 471.052 885.438 472.655C882.931 485.771 870.594 535.118 823.453 560.335C805.218 570.087 777.909 578.405 739.183 566.019C670.23 543.965 635.26 458.819 621.135 439.3C616.089 432.328 613.743 429.354 608.701 425.57C605.232 423.024 600.214 424.091 598.939 427.05C594.883 436.475 576.599 461.565 564.952 468.385C548.556 477.989 538.452 481.49 514.456 485.104C490.044 488.783 464.293 488.114 456.937 488.114C449.581 488.114 441.219 488.447 438.211 489.785C435.201 491.126 425.167 499.486 423.162 500.484C421.153 501.486 412.126 506.168 402.093 503.16C392.06 500.155 375.674 496.473 371.996 496.808C368.318 497.139 344.49 497.804 334.208 494.131C321.936 489.749 309.698 479.923 302.698 473.661C301.988 472.938 302.397 471.9 303.271 471.749C317.424 469.184 349.668 469.054 355.945 469.054C367.315 469.054 385.35 470.255 396.742 468.724C407.287 467.306 425.264 464.76 449.916 453.339C481.835 438.56 515.803 403.227 529.505 390.152C544.218 376.108 559.162 354.878 567.452 349.459C571.8 346.618 577.993 340.837 603.411 347.354C632.076 354.705 721.139 379.86 778.56 479.439C781.136 484.4 790.9 481.281 787.554 474.079C772.95 442.652 702.64 357.394 599.508 340.722C575.375 336.82 568.143 341.4 562.948 345.683C554.462 352.675 527.398 384.235 497.402 412.217C491.178 418.027 453.546 448.83 428.178 456.015C388.05 467.383 362.794 464.645 346.417 463.765C319.26 462.31 287.037 466.135 274.31 469.176C270.29 470.141 261.616 470.841 260.636 477.411C259.738 483.453 257.294 503.829 243.58 505.166C229.872 506.502 201.113 499.816 196.765 498.814C192.418 497.808 183.389 496.473 178.372 499.486C173.358 502.49 164.683 515.39 149.613 514.86C114.552 513.634 83.389 493.079 78.548 489.914C77.386 488.27 77.719 485.104 83.065 485.104C89.084 485.104 113.541 486.366 121.858 484.769C139.002 481.481 143.024 477.096 149.882 471.393C163.852 459.776 201.706 450.001 251.359 434.957C301.009 419.916 432.913 370.774 444.448 366.261C455.984 361.745 481.56 347.708 486.576 344.7C491.589 341.691 502.223 334.631 512.156 333.164C522.091 331.701 524.694 332.665 531.717 332.665C538.738 332.665 581.522 325.028 617.477 327.652C665.206 331.136 722.371 355.808 748.681 374.855C762.052 384.536 763.371 386.474 793.016 377.963C801.978 375.388 805.554 376.292 812.573 377.795C819.597 379.296 843.214 383.611 871.287 377.217C904.592 369.625 922.33 348.93 934.721 347.734C938.346 347.38 941.565 347.527 943.072 347.632C943.649 347.673 944.029 347.367 944.168 346.755C944.929 343.416 948.241 332.032 959.353 323.64C969.38 316.067 987.55 316.735 990.78 316.92C991.11 316.94 991.42 316.803 991.65 316.539C993.03 315.038 997.95 309.853 1001.65 308.429C1004.38 307.378 1005.66 307.09 1012.18 309.597C1018.7 312.106 1073.08 336.362 1075.55 338.803C1080.03 343.223 1076.18 345.491 1083.29 355.014C1085.13 357.483 1090.58 366.467 1085.77 377.18Z" fill="#1C8781"/>
<path fill-rule="evenodd" clip-rule="evenodd" d="M1143.74 581.889C1145.19 581.889 1145.57 583.402 1145.26 584.157C1134.97 608.863 1122.01 632.577 1106.13 655.259C1023.05 773.885 901.54 834.608 778.272 833.908C699.849 834.887 620.447 811 549.518 761.346C483.949 715.44 434.994 653.669 406.506 584.223C406.205 583.486 406.649 582.01 408.1 582.01L424.155 581.982C438.686 581.982 446.133 592.29 448.427 597.36C506.812 726.296 636.302 816.175 786.886 816.989C940.748 815.112 1072.22 720.24 1127.69 585.986C1128.24 584.63 1130.03 581.91 1133.78 581.91L1143.74 581.889ZM407.817 305.045C406.312 305.045 405.978 303.491 406.303 302.714C416.591 278.032 429.535 254.339 445.406 231.681C528.487 113.051 649.995 52.3281 773.265 53.0287C851.684 52.0534 931.088 75.9367 1002.02 125.591C1067.53 171.457 1116.46 233.163 1144.96 302.535C1145.38 303.703 1144.74 304.929 1143.42 304.929L1127.4 304.957C1111.57 304.957 1105.14 294.033 1102.69 288.667C1044.11 160.219 914.877 70.7609 764.652 69.9452C610.862 71.8287 479.445 166.602 423.935 300.753C423.347 302.171 421.719 305.024 417.332 305.024L407.817 305.045Z" fill="#1C8781"/>
</g>
<defs>
<clipPath id="clip0_197_260">
<rect width="1493" height="1183" fill="white"/>
</clipPath>
</defs>
</svg>
